<?xml version="1.0" encoding="iso-8859-1"?>
<!DOCTYPE svg PUBLIC "-//W3C//DTD SVG 1.1//EN" "http://www.w3.org/Graphics/SVG/1.1/DTD/svg11.dtd">
<svg xmlns="http://www.w3.org/2000/svg" xmlns:xlink="http://www.w3.org/1999/xlink" version="1.1" x="0px" y="0px" viewBox="0 0 100 100" enable-background="new 0 0 90 90" xml:space="preserve"><path d="M60.7,21.2H31.8c-1.1,0-2.1-0.9-2.1-2.1c0-1.1,0.9-2.1,2.1-2.1h28.9c1.1,0,2.1,0.9,2.1,2.1C62.8,20.3,61.9,21.2,60.7,21.2z   M62.8,31.6c0-1.1-0.9-2.1-2.1-2.1H31.8c-1.1,0-2.1,0.9-2.1,2.1s0.9,2.1,2.1,2.1h28.9C61.9,33.6,62.8,32.7,62.8,31.6z M73.7,8.1V83  c0,2.1-1.7,3.8-3.8,3.8H24.7c-3.6,0-6.5-2.9-6.5-6.5V9.1c0-2.6,2.1-4.8,4.8-4.8h46.9C72,4.3,73.7,6,73.7,8.1z M22.4,9.1v65.2  c0.7-0.3,1.5-0.4,2.3-0.4h44.8V8.4H23C22.7,8.4,22.4,8.7,22.4,9.1z M69.6,82.6V78H24.7c-1.3,0-2.3,1-2.3,2.3c0,1.3,1,2.3,2.3,2.3  H69.6z"/></svg>
