<?xml version="1.0" encoding="utf-8"?>
<!DOCTYPE svg PUBLIC "-//W3C//DTD SVG 1.1//EN" "http://www.w3.org/Graphics/SVG/1.1/DTD/svg11.dtd">

<!-- Generator: Adobe Illustrator 19.1.0, SVG Export Plug-In . SVG Version: 6.00 Build 0)  -->
<svg version="1.2" baseProfile="tiny" id="Layer_1" xmlns="http://www.w3.org/2000/svg" xmlns:xlink="http://www.w3.org/1999/xlink"
	 x="0px" y="0px" viewBox="0 0 93.5 93.5" xml:space="preserve">
<g>
	<circle fill="#AC91C3" cx="46.8" cy="46.8" r="46.8"/>
	<g>
		<path fill="#F0F2F5" d="M54.4,71.9H39.1c-0.4,0-0.7,0.3-0.7,0.7v3.5c0,0.4,0.3,0.7,0.7,0.7h15.3c0.4,0,0.7-0.3,0.7-0.7v-3.5
			C55.1,72.2,54.8,71.9,54.4,71.9z"/>
		<path fill="#F0F2F5" d="M38.6,33.7c0,0,0.7,0.2,0.9,0.2c0.2,0,0.4-0.1,0.4-0.1l0.6,2.6l1,1.9l0.1,1.6l0,0l5.3,4.1l5.6-4.7l0-0.8
			c0.9-1.1,1.2-2,1.4-3.5l0.1-0.9l0.4-0.7l0.3,0.3h0.5l0.4-0.2l0.3-0.6l0.4-0.6l0.4-1.3v-1.9l-0.2-0.6l-0.2-0.4l-0.6,0v-1.5
			c0-3.1,0.5-4.1-1.3-6.7l-1-0.5l-0.9,0l-0.3-0.6l-0.9-0.9c-5.6-2.3-9-0.8-12.8,4L38,24.6v3.7h-0.8L37,28.6l0.2,2.8L38.6,33.7z"/>
		<path fill="#F0F2F5" d="M46.8,70.6h6.7c-0.6-1.1-0.7-2.2-0.6-3.4h-6.1h-6c0.1,1.2-0.2,2.3-0.8,3.4H46.8z"/>
		<path fill="#F0F2F5" d="M66.1,51.4l-1-2.7c-2-3.3-5-3-8.4-3.7L54,42.1h-1l-0.4,0.3l-5.5,4.1l-0.3,0.3l-0.3-0.3l-5.5-4l-0.4-0.4h-1
			L36.8,45c-3.4,0.8-6.4,0.4-8.4,3.7l-1,2.7l-0.4,2.2c1.9,1.3,6.7,5.5,9.2,8.5c2.6,3,3.4,1.9,4.3,3.5h6.1h6.1
			c0.9-1.6,1.8-0.6,4.3-3.5c2.6-3,7.3-7.2,9.2-8.5L66.1,51.4z"/>
	</g>
</g>
</svg>
