<?xml version="1.0" encoding="utf-8"?>
<!DOCTYPE svg PUBLIC "-//W3C//DTD SVG 1.1//EN" "http://www.w3.org/Graphics/SVG/1.1/DTD/svg11.dtd">
<!-- Generator: Adobe Illustrator 19.1.0, SVG Export Plug-In . SVG Version: 6.00 Build 0)  -->
<svg version="1.2" baseProfile="tiny" id="Layer_1" xmlns="http://www.w3.org/2000/svg" xmlns:xlink="http://www.w3.org/1999/xlink"
	 x="0px" y="0px" viewBox="0 0 93.5 93.5" xml:space="preserve">
<g>
	<circle fill="#4BB75F" cx="46.8" cy="46.8" r="46.8"/>
	<path fill="#F0F2F5" d="M65.8,39.9c0.4-1,0.6-2.2,0.6-3.3c0-5.1-3.7-9.4-8.6-10.2c-0.4-5.4-4.9-9.6-10.4-9.6
		c-5.4,0-9.9,4.1-10.3,9.4c-5.5,0.3-9.8,4.8-9.8,10.4c0,1.2,0.2,2.3,0.6,3.3c-2.9,1.8-4.8,5.1-4.8,8.8c0,5.7,4.7,10.4,10.4,10.4
		c2.5,0,4.8-0.9,6.6-2.4c0.8,0.9,1.9,1.6,3,2.1v17.9h7.8V59.3c1.4-0.5,2.6-1.2,3.6-2.1c1.7,1.2,3.7,1.9,5.9,1.9
		c5.7,0,10.4-4.7,10.4-10.4C70.6,45,68.7,41.7,65.8,39.9z"/>
</g>
</svg>
