<?xml version="1.0" encoding="iso-8859-1"?>
<!DOCTYPE svg PUBLIC "-//W3C//DTD SVG 1.1//EN" "http://www.w3.org/Graphics/SVG/1.1/DTD/svg11.dtd">
<svg xmlns="http://www.w3.org/2000/svg" xmlns:xlink="http://www.w3.org/1999/xlink" version="1.1" x="0px" y="0px" viewBox="0 0 100 100" enable-background="new 0 0 100 100" xml:space="preserve"><path d="M74,14c-13.598,0-20.887,8.617-24,13.688C46.887,22.617,39.598,14,26,14C12.766,14,2,24.767,2,38  c0,20.872,24.453,41.493,47.172,51.82c0.058,0.026,0.118,0.038,0.176,0.059c0.052,0.018,0.101,0.037,0.153,0.051  c0.165,0.043,0.332,0.071,0.497,0.071c0,0,0,0,0.001,0s0,0,0.001,0c0.166,0,0.333-0.028,0.499-0.072  c0.051-0.013,0.098-0.031,0.148-0.049c0.06-0.021,0.121-0.033,0.18-0.06C73.547,79.493,98,58.872,98,38C98,24.767,87.234,14,74,14z   M50,85.793C33.975,78.344,17.226,65.78,9.863,52H20c0.861,0,1.625-0.551,1.897-1.367l1.828-5.484l4.334,17.337  c0.219,0.873,0.994,1.493,1.894,1.514C29.969,64,29.985,64,30,64c0.881,0,1.661-0.578,1.915-1.426l4.551-15.169l1.745,3.489  C38.55,51.572,39.243,52,40,52h4.35c0.826,2.326,3.043,4,5.65,4c3.309,0,6-2.691,6-6s-2.691-6-6-6c-2.606,0-4.824,1.674-5.65,4  h-3.114l-3.447-6.895c-0.367-0.733-1.146-1.184-1.961-1.098c-0.817,0.07-1.508,0.632-1.744,1.418l-3.909,13.029l-4.235-16.94  c-0.216-0.862-0.975-1.479-1.864-1.513c-0.89-0.059-1.693,0.522-1.974,1.365L18.559,48H8.019C6.726,44.695,6,41.346,6,38  c0-11.028,8.972-20,20-20c16.332,0,21.893,14.086,22.128,14.705c0.39,1.033,1.542,1.554,2.574,1.168  c0.549-0.206,0.948-0.631,1.15-1.136c0.005-0.013,0.014-0.017,0.019-0.03C52.1,32.106,57.656,18,74,18c11.028,0,20,8.972,20,20  C94,56.859,71.353,75.867,50,85.793z M48,50c0-1.103,0.897-2,2-2s2,0.897,2,2s-0.897,2-2,2S48,51.103,48,50z"/></svg>
