<?xml version="1.0" encoding="utf-8"?>
<!DOCTYPE svg PUBLIC "-//W3C//DTD SVG 1.1//EN" "http://www.w3.org/Graphics/SVG/1.1/DTD/svg11.dtd">
<!-- Generator: Adobe Illustrator 19.1.0, SVG Export Plug-In . SVG Version: 6.00 Build 0)  -->
<svg version="1.2" baseProfile="tiny" id="Layer_1" xmlns="http://www.w3.org/2000/svg" xmlns:xlink="http://www.w3.org/1999/xlink"
	 x="0px" y="0px" viewBox="0 0 93.5 93.5" xml:space="preserve">
<g>
	<circle fill="#A13F34" cx="46.8" cy="46.8" r="46.8"/>
	<g>
		<path fill="#F0F2F5" d="M40,39.9c-1.1,0-2.1,0.9-2.1,2.1c0,1.2,0.9,2.1,2.1,2.1c1.2,0,2.1-0.9,2.1-2.1
			C42.1,40.8,41.1,39.9,40,39.9z"/>
		<path fill="#F0F2F5" d="M59.3,33.6v-2c0-4.3-1.3-8-3.6-10.7c-2.3-2.7-5.5-4.2-9-4.2c-3.5,0-6.7,1.5-9,4.2
			c-2.3,2.7-3.6,6.4-3.6,10.7v2h-8.3v43.1h41.6V33.6H59.3z M40.7,58.9l-6-14.4l3.7-6.5l7.2,2l6,14.4L40.7,58.9z M55.1,33.6H38.4v-2
			c0.1-7,3.9-10.7,8.4-10.7c4.4,0,8.3,3.7,8.4,10.7V33.6z"/>
	</g>
</g>
</svg>
