<?xml version="1.0" encoding="utf-8"?>
<!DOCTYPE svg PUBLIC "-//W3C//DTD SVG 1.1//EN" "http://www.w3.org/Graphics/SVG/1.1/DTD/svg11.dtd">
<!-- Generator: Adobe Illustrator 19.1.0, SVG Export Plug-In . SVG Version: 6.00 Build 0)  -->
<svg version="1.2" baseProfile="tiny" id="Layer_1" xmlns="http://www.w3.org/2000/svg" xmlns:xlink="http://www.w3.org/1999/xlink"
	 x="0px" y="0px" viewBox="0 0 93.5 93.5" xml:space="preserve">
<g>
	<circle fill="#66C9D6" cx="46.8" cy="46.8" r="46.8"/>
	<path fill="#F0F2F5" d="M73.2,31.1h-1.2v-6c0-2-1.4-4.3-3.2-5.2c0,0-6.4-3.2-22-3.2s-22,3.2-22,3.2c-1.8,0.9-3.2,3.2-3.2,5.2v6
		h-1.2c-2,0-3.6,1.6-3.6,3.6v3.6c0,2,1.6,3.6,3.6,3.6h1.2v24.6c0,1.6,1,2.9,2.4,3.4v2c0,2.6,2.2,4.8,4.8,4.8s4.8-2.2,4.8-4.8v-1.8
		H60v1.8c0,2.6,2.2,4.8,4.8,4.8s4.8-2.2,4.8-4.8v-2c1.4-0.5,2.4-1.8,2.4-3.4V42h1.2c2,0,3.6-1.6,3.6-3.6v-3.6
		C76.8,32.8,75.1,31.1,73.2,31.1z M34.8,22.8c0-0.7,0.5-1.2,1.2-1.2h21.6c0.7,0,1.2,0.5,1.2,1.2v2.4c0,0.7-0.5,1.2-1.2,1.2H36
		c-0.7,0-1.2-0.5-1.2-1.2V22.8z M29.4,65.3c-1.7,0-3-1.3-3-3c0-1.7,1.3-3,3-3c1.7,0,3,1.3,3,3C32.3,64,31,65.3,29.4,65.3z
		 M64.2,65.3c-1.7,0-3-1.3-3-3c0-1.7,1.3-3,3-3c1.7,0,3,1.3,3,3C67.2,64,65.8,65.3,64.2,65.3z M67.2,51.5c0,0.7-0.5,1.2-1.2,1.2
		H27.5c-0.7,0-1.2-0.5-1.2-1.2V32.3c0-0.7,0.5-1.2,1.2-1.2h38.4c0.7,0,1.2,0.5,1.2,1.2V51.5z"/>
</g>
</svg>
