<?xml version="1.0" encoding="utf-8"?>
<!DOCTYPE svg PUBLIC "-//W3C//DTD SVG 1.1//EN" "http://www.w3.org/Graphics/SVG/1.1/DTD/svg11.dtd">
<!-- Generator: Adobe Illustrator 19.1.0, SVG Export Plug-In . SVG Version: 6.00 Build 0)  -->
<svg version="1.2" baseProfile="tiny" id="Layer_1" xmlns="http://www.w3.org/2000/svg" xmlns:xlink="http://www.w3.org/1999/xlink"
	 x="0px" y="0px" viewBox="0 0 93.5 93.5" xml:space="preserve">
<g>
	<circle fill="#CCBD00" cx="46.8" cy="46.8" r="46.8"/>
	<g>
		<path fill="#F0F2F5" d="M38.6,70.6c0,0,0.9,3.8,6.3,4.5c0,0.9,0.8,1.7,1.7,1.7c1,0,1.7-0.7,1.7-1.7c5.5-0.7,6.3-4.5,6.3-4.5
			l0.4-4.3H38.3L38.6,70.6z"/>
		<path fill="#F0F2F5" d="M46.9,16.8c-6,0-11.3,2.8-14.8,7.1c-1,1.2-1.9,2.5-2.6,4.1c-4.3,9.7-0.2,20.1,4.7,26.5
			c0,0,1.9,2.1,2.4,6.1c0.3,1.9,0.7,3.1,1.3,4h0.3h4.5h7.9h4.6c0.7-0.9,1.3-2.1,1.5-4c0.7-4.8,2.4-6.1,2.4-6.1
			c3.3-4.1,6.1-10.1,6.5-16.4c0.1-0.8,0.1-1.6,0.1-2.4C65.8,25.2,57.4,16.8,46.9,16.8z M58.6,37.2v0.2v0.2c-0.3,3.9-2,8.5-4.7,12.1
			c-1.3,1.3-2.8,3.7-3.7,7.7h-6.9c-0.9-4-2.7-6.5-3.5-7.5C36.2,45.3,33,37.5,36,30.9c0.4-0.9,0.9-1.7,1.5-2.5l0.1-0.1l0.1-0.1
			c2.3-2.9,5.7-4.5,9.3-4.5c6.5,0,11.9,5.3,11.9,11.9C58.8,36.2,58.7,36.8,58.6,37.2z"/>
	</g>
</g>
</svg>
