<?xml version="1.0" encoding="utf-8"?>
<!DOCTYPE svg PUBLIC "-//W3C//DTD SVG 1.1//EN" "http://www.w3.org/Graphics/SVG/1.1/DTD/svg11.dtd">
<!-- Generator: Adobe Illustrator 19.1.0, SVG Export Plug-In . SVG Version: 6.00 Build 0)  -->
<svg version="1.2" baseProfile="tiny" id="Layer_1" xmlns="http://www.w3.org/2000/svg" xmlns:xlink="http://www.w3.org/1999/xlink"
	 x="0px" y="0px" viewBox="0 0 93.5 93.5" xml:space="preserve">
<g>
	<circle fill="#FCB415" cx="46.8" cy="46.8" r="46.8"/>
	<g>
		<circle fill="#F0F2F5" cx="25.9" cy="32.7" r="4"/>
		<circle fill="#F0F2F5" cx="36.4" cy="32.7" r="4"/>
		<circle fill="#F0F2F5" cx="31" cy="23.4" r="4"/>
		<circle fill="#F0F2F5" cx="41.7" cy="23.4" r="4"/>
		<circle fill="#F0F2F5" cx="51.9" cy="23.4" r="4"/>
		<circle fill="#F0F2F5" cx="62.1" cy="23.4" r="4"/>
		<circle fill="#F0F2F5" cx="57.2" cy="32.7" r="4"/>
		<path fill="#F0F2F5" d="M46.8,28.8c2.2,0,4,1.8,4,4c0,2.2-1.8,4-4,4c-2.2,0-4-1.8-4-4C42.9,30.5,44.6,28.8,46.8,28.8z"/>
		<path fill="#F0F2F5" d="M67.7,28.8c2.2,0,4,1.8,4,4c0,2.2-1.8,4-4,4c-2.2,0-4-1.8-4-4C63.7,30.5,65.5,28.8,67.7,28.8z"/>
		<path fill="#F0F2F5" d="M20.7,74H31V56.6h3.9l0-14c0-2.5-2-4.5-4.4-4.5h-9.3c-2.5,0-4.4,2-4.4,4.5l0,14h3.9V74z"/>
		<path fill="#F0F2F5" d="M41.7,74H52V56.6h3.9l0-14c0-2.5-2-4.5-4.4-4.5h-9.3c-2.5,0-4.4,2-4.4,4.5l0,14h3.9L41.7,74L41.7,74z"/>
		<path fill="#F0F2F5" d="M62.5,74h10.4V56.6h3.9l0-14c0-2.5-2-4.5-4.4-4.5H63c-2.5,0-4.4,2-4.4,4.5l0,14h3.9L62.5,74L62.5,74z"/>
	</g>
</g>
</svg>
