<?xml version="1.0" encoding="utf-8"?>
<!DOCTYPE svg PUBLIC "-//W3C//DTD SVG 1.1//EN" "http://www.w3.org/Graphics/SVG/1.1/DTD/svg11.dtd">
<!-- Generator: Adobe Illustrator 19.1.0, SVG Export Plug-In . SVG Version: 6.00 Build 0)  -->
<svg version="1.2" baseProfile="tiny" id="Layer_1" xmlns="http://www.w3.org/2000/svg" xmlns:xlink="http://www.w3.org/1999/xlink"
	 x="0px" y="0px" viewBox="0 0 93.5 93.5" xml:space="preserve">
<g>
	<circle fill="#F26E22" cx="46.8" cy="46.8" r="46.8"/>
	<g>
		<path fill="#F0F2F5" d="M61.4,38.1C58.6,41.3,49.3,49.6,46,60.7c-4-11.2-13.4-19.1-13.4-19.1s-4.3,22.6,9.9,33.7
			c3.7,3.2,7.5,0,7.5,0S62.7,64.4,61.4,38.1z"/>
		<path fill="#F0F2F5" d="M53.4,43.5C46.3,51,46,55.9,46,55.9c-1.9-7.2-8.7-12.6-8.7-12.6s0.2-10.9,3.6-21.6c3.4-10.7,7.4-0.6,7.6,0
			C48.8,22.3,52.6,30.5,53.4,43.5z"/>
	</g>
</g>
</svg>
