<?xml version="1.0" encoding="iso-8859-1"?>
<!DOCTYPE svg PUBLIC "-//W3C//DTD SVG 1.1//EN" "http://www.w3.org/Graphics/SVG/1.1/DTD/svg11.dtd">
<svg xmlns="http://www.w3.org/2000/svg" xmlns:xlink="http://www.w3.org/1999/xlink" version="1.1" x="0px" y="0px" viewBox="0 0 100 100" enable-background="new 0 0 90 90" xml:space="preserve"><g><path d="M36.32,69.9c-6.01,0-10.9-4.89-10.9-10.9s4.89-10.9,10.9-10.9s10.9,4.89,10.9,10.9S42.331,69.9,36.32,69.9z M36.32,51.9   c-3.915,0-7.1,3.185-7.1,7.1s3.185,7.1,7.1,7.1s7.1-3.185,7.1-7.1S40.235,51.9,36.32,51.9z"/><path d="M54.32,69.9c-6.011,0-10.9-4.89-10.9-10.9s4.889-10.9,10.9-10.9s10.9,4.89,10.9,10.9S60.331,69.9,54.32,69.9z M54.32,51.9   c-3.915,0-7.1,3.185-7.1,7.1s3.185,7.1,7.1,7.1s7.1-3.185,7.1-7.1S58.235,51.9,54.32,51.9z"/><path d="M45.32,87.9c-6.01,0-10.9-4.89-10.9-10.9s4.89-10.9,10.9-10.9c6.011,0,10.9,4.89,10.9,10.9S51.331,87.9,45.32,87.9z    M45.32,69.9c-3.915,0-7.1,3.185-7.1,7.1s3.185,7.1,7.1,7.1s7.1-3.185,7.1-7.1S49.235,69.9,45.32,69.9z"/><path d="M27.32,51.9c-6.01,0-10.9-4.89-10.9-10.9c0-6.01,4.89-10.9,10.9-10.9s10.9,4.89,10.9,10.9   C38.22,47.011,33.331,51.9,27.32,51.9z M27.32,33.9c-3.915,0-7.1,3.185-7.1,7.1s3.185,7.1,7.1,7.1s7.1-3.185,7.1-7.1   S31.235,33.9,27.32,33.9z"/><path d="M45.32,51.9c-6.01,0-10.9-4.89-10.9-10.9c0-6.01,4.89-10.9,10.9-10.9c6.011,0,10.9,4.89,10.9,10.9   C56.221,47.011,51.331,51.9,45.32,51.9z M45.32,33.9c-3.915,0-7.1,3.185-7.1,7.1s3.185,7.1,7.1,7.1s7.1-3.185,7.1-7.1   S49.235,33.9,45.32,33.9z"/><path d="M63.32,51.9c-6.011,0-10.9-4.89-10.9-10.9c0-6.01,4.89-10.9,10.9-10.9s10.9,4.89,10.9,10.9   C74.221,47.011,69.331,51.9,63.32,51.9z M63.32,33.9c-3.915,0-7.1,3.185-7.1,7.1s3.185,7.1,7.1,7.1s7.1-3.185,7.1-7.1   S67.235,33.9,63.32,33.9z"/><path d="M43.42,32.004c-0.002-0.407-0.1-6.466-3.917-11.033c-2.506,2.31-6.519,3.928-12.183,3.928c-5.679,0-8.65-3.22-8.65-6.4   s2.971-6.4,8.65-6.4c4.942,0,8.657,1.243,11.449,3.108c0.102-0.402,0.151-0.807,0.151-1.208c0-3.419-3.63-7.1-11.6-7.1V3.1   c10.581,0,15.4,5.65,15.4,10.9c0,1.29-0.291,2.604-0.887,3.853c5.293,5.832,5.388,14.019,5.388,14.147h-3.8h1.9L43.42,32.004z    M27.32,15.9c-3.184,0-4.85,1.308-4.85,2.6s1.666,2.6,4.85,2.6c4.387,0,7.458-1.115,9.334-2.688   C34.388,16.905,31.361,15.9,27.32,15.9z"/><path d="M50.989,26.737c-0.001,0-0.001,0-0.002,0c-1.845,0-3.586-0.806-5.173-2.394c-2.534-2.534-2.605-5.02-2.218-6.659   c1.868-7.912,19.011-13.837,20.96-14.487l3.604-1.201L66.96,5.601C65.783,9.13,59.485,26.737,50.989,26.737z M61.933,8.229   c-6.294,2.571-13.78,6.692-14.639,10.33c-0.154,0.657-0.198,1.693,1.207,3.099c0.861,0.861,1.675,1.28,2.487,1.28   C54.582,22.938,59.072,15.252,61.933,8.229z"/></g></svg>
