<?xml version="1.0" encoding="iso-8859-1"?>
<!DOCTYPE svg PUBLIC "-//W3C//DTD SVG 1.1//EN" "http://www.w3.org/Graphics/SVG/1.1/DTD/svg11.dtd">
<svg xmlns="http://www.w3.org/2000/svg" xmlns:xlink="http://www.w3.org/1999/xlink" version="1.1" x="0px" y="0px" viewBox="0 0 100 100" enable-background="new 0 0 100 100" xml:space="preserve"><g><g><path d="M70.542,72.95H29.458c-0.577,0-1.111-0.307-1.4-0.807c-0.29-0.499-0.292-1.115-0.006-1.616l4.813-8.43l-1.164,0.079    c-0.621,0.035-1.217-0.279-1.522-0.826c-0.306-0.546-0.269-1.22,0.094-1.729l5.388-7.565l2.005-2.604l-2.077-0.573    c-0.479-0.132-0.872-0.478-1.063-0.937c-0.192-0.459-0.162-0.98,0.081-1.415l3.03-5.415c0.04-0.071,0.085-0.139,0.135-0.204    l2.004-2.576H39.05c-0.555,0-1.072-0.285-1.369-0.754s-0.333-1.058-0.095-1.56L49.307,11.29c0.266-0.562,0.831-0.921,1.453-0.926    c0.602-0.041,1.19,0.348,1.465,0.907l11.823,24.108c0.229,0.468,0.22,1.019-0.027,1.479c-0.247,0.46-0.7,0.773-1.217,0.84    l-2.044,0.267l2.641,3.599c0.036,0.049,0.069,0.1,0.1,0.153l2.749,4.797c0.23,0.402,0.277,0.884,0.129,1.324    s-0.479,0.794-0.906,0.974l-2.35,0.989l1.25,1.717l6.046,7.752c0.373,0.478,0.447,1.123,0.194,1.673    c-0.253,0.55-0.792,0.913-1.397,0.941l-2.242,0.104l4.967,8.53c0.292,0.501,0.293,1.12,0.004,1.622    C71.657,72.64,71.121,72.95,70.542,72.95z M32.248,69.71h35.477l-4.895-8.405c-0.285-0.489-0.293-1.092-0.023-1.589    c0.271-0.498,0.782-0.817,1.348-0.843l1.784-0.082l-4.152-5.325L59.3,50.053c-0.292-0.4-0.384-0.911-0.251-1.388    c0.132-0.477,0.476-0.867,0.932-1.059l2.548-1.072l-1.793-3.13l-4.208-5.734c-0.339-0.461-0.409-1.068-0.184-1.595    c0.225-0.526,0.712-0.895,1.28-0.969l2.523-0.329l-9.35-19.065l-9.186,19.381h1.479c0.619,0,1.183,0.353,1.455,0.908    c0.271,0.556,0.203,1.218-0.177,1.706L40.403,42.8l-1.961,3.505l2.408,0.665c0.52,0.144,0.934,0.536,1.105,1.048    s0.076,1.075-0.253,1.501l-3.439,4.463l-3.368,4.731l0.765-0.052c0.589-0.045,1.165,0.25,1.481,0.756    c0.316,0.506,0.33,1.145,0.034,1.663L32.248,69.71z"/></g><line fill="none" stroke="#000000" stroke-width="3.4159" stroke-linecap="round" stroke-linejoin="round" stroke-miterlimit="10" x1="50" y1="71.33" x2="50" y2="83.041"/></g><text x="0" y="115" fill="#000000" font-size="5px" font-weight="bold" font-family="'Helvetica Neue', Helvetica, Arial-Unicode, Arial, Sans-serif">Created by Eric Bird</text><text x="0" y="120" fill="#000000" font-size="5px" font-weight="bold" font-family="'Helvetica Neue', Helvetica, Arial-Unicode, Arial, Sans-serif">from the Noun Project</text></svg>
