<?xml version="1.0" encoding="utf-8"?>
<!DOCTYPE svg PUBLIC "-//W3C//DTD SVG 1.1//EN" "http://www.w3.org/Graphics/SVG/1.1/DTD/svg11.dtd">
<!-- Generator: Adobe Illustrator 19.1.0, SVG Export Plug-In . SVG Version: 6.00 Build 0)  -->
<svg version="1.2" baseProfile="tiny" id="Layer_1" xmlns="http://www.w3.org/2000/svg" xmlns:xlink="http://www.w3.org/1999/xlink"
	 x="0px" y="0px" viewBox="0 0 93.5 93.5" xml:space="preserve">
<g>
	<circle fill="#428DB5" cx="46.8" cy="46.8" r="46.8"/>
	<path fill="#F0F2F5" d="M58.2,29.7L58.2,29.7h-0.4H58.2z M58.2,29.7L58.2,29.7h-0.4H58.2z M76.8,41.3v18.8
		c0,6.4-5.3,11.6-11.8,11.6H28.5c-6.5,0-11.8-5.1-11.8-11.6V41.3c0-6.4,5.3-11.6,11.8-11.6h29.3h0.4l0,0H65
		C71.4,29.8,76.8,35,76.8,41.3z M60.3,54.8v-8.1h-9.4v-9.3h-8.2v9.3h-9.4v8.1h9.4v9.3H51v-9.3H60.3z M58.2,26.8
		c0-2.8-2.2-5.1-5.1-5.1H40.4c-2.8,0-5.1,2.2-5.1,5.1v2.9H38v-2.9c0-1.3,1.1-2.4,2.4-2.4h12.7c1.4,0,2.4,1.1,2.5,2.4v2.9h2.2h0.4
		V26.8z"/>
</g>
</svg>
