<?xml version="1.0" encoding="iso-8859-1"?>
<!DOCTYPE svg PUBLIC "-//W3C//DTD SVG 1.1//EN" "http://www.w3.org/Graphics/SVG/1.1/DTD/svg11.dtd">
<svg xmlns="http://www.w3.org/2000/svg" xmlns:xlink="http://www.w3.org/1999/xlink" version="1.1" x="0px" y="0px" viewBox="0 0 100 100" enable-background="new 0 0 100 100" xml:space="preserve"><g><path d="M94.7,53.9l-7-11c-0.4-0.6-1-0.9-1.7-0.9H74.8L60.4,27.6C60,27.2,59.5,27,59,27H22c-0.5,0-1,0.2-1.4,0.6l-15,15   C5.2,43,5,43.5,5,44v19c0,1.1,0.9,2,2,2h4.2c0.9,4.6,5,8,9.8,8s8.9-3.4,9.8-8h36.4c0.9,4.6,5,8,9.8,8s8.9-3.4,9.8-8H93   c1.1,0,2-0.9,2-2v-8C95,54.6,94.9,54.2,94.7,53.9z M69.2,42H41V31h17.2L69.2,42z M22.8,31H37v11H11.8L22.8,31z M21,69   c-3.3,0-6-2.7-6-6s2.7-6,6-6s6,2.7,6,6S24.3,69,21,69z M21,53c-4.8,0-8.9,3.4-9.8,8H9V46h28v15h-6.2C29.9,56.4,25.8,53,21,53z    M67.2,61H41V46h30v9C69.1,56.5,67.7,58.6,67.2,61z M77,69c-3.3,0-6-2.7-6-6s2.7-6,6-6s6,2.7,6,6S80.3,69,77,69z M91,61h-4.2   c-0.9-4.6-5-8-9.8-8c-0.7,0-1.4,0.1-2,0.2V46h9.9l6.1,9.6V61z M50,50c0,1.1-0.9,2-2,2h-3c-1.1,0-2-0.9-2-2s0.9-2,2-2h3   C49.1,48,50,48.9,50,50z"/></g></svg>
